<mxfile host="app.diagrams.net" agent="Mozilla/5.0 (X11; Linux x86_64) AppleWebKit/537.36 (KHTML, like Gecko) Chrome/130.0.0.0 Safari/537.36" version="24.8.6">
  <diagram name="Page-1" id="IV873wfHwmZN2BvOq5vE">
    <mxGraphModel dx="1425" dy="685" grid="1" gridSize="10" guides="1" tooltips="1" connect="1" arrows="1" fold="1" page="1" pageScale="1" pageWidth="827" pageHeight="1169" math="0" shadow="0">
      <root>
        <mxCell id="0" />
        <mxCell id="1" parent="0" />
        <mxCell id="NRQzGSNmXJWds7D0hunD-17" value="animes" style="rounded=0;whiteSpace=wrap;html=1;" vertex="1" parent="1">
          <mxGeometry x="20" y="280" width="230" height="60" as="geometry" />
        </mxCell>
        <mxCell id="NRQzGSNmXJWds7D0hunD-45" style="edgeStyle=orthogonalEdgeStyle;rounded=0;orthogonalLoop=1;jettySize=auto;html=1;exitX=1;exitY=0.75;exitDx=0;exitDy=0;entryX=1;entryY=0.75;entryDx=0;entryDy=0;" edge="1" parent="1" source="NRQzGSNmXJWds7D0hunD-19" target="NRQzGSNmXJWds7D0hunD-19">
          <mxGeometry relative="1" as="geometry" />
        </mxCell>
        <mxCell id="NRQzGSNmXJWds7D0hunD-19" value="Id_Anime (PK) INTEGER&lt;div&gt;English_Name VARCHAR(200)&lt;/div&gt;&lt;div&gt;Score INTEGER&lt;/div&gt;&lt;div&gt;Id_Type INTEGER&lt;/div&gt;&lt;div&gt;episode INTEGER&lt;/div&gt;&lt;div&gt;aired&amp;nbsp; DATE&lt;/div&gt;&lt;div&gt;premiered VARCHAR(90)&lt;/div&gt;&lt;div&gt;&lt;span style=&quot;background-color: initial;&quot;&gt;source VARCHAR(40)&lt;/span&gt;&lt;/div&gt;&lt;div&gt;duration VARCHAR(40)&lt;/div&gt;&lt;div&gt;Rating VARCHAR(60)&lt;/div&gt;&lt;div&gt;Ranked NUMERIC&lt;/div&gt;&lt;div&gt;Popularity INT&lt;/div&gt;&lt;div&gt;&lt;br&gt;&lt;/div&gt;" style="whiteSpace=wrap;html=1;" vertex="1" parent="1">
          <mxGeometry x="20" y="320" width="230" height="220" as="geometry" />
        </mxCell>
        <mxCell id="NRQzGSNmXJWds7D0hunD-21" value="genres" style="whiteSpace=wrap;html=1;" vertex="1" parent="1">
          <mxGeometry x="40" y="100" width="120" height="60" as="geometry" />
        </mxCell>
        <mxCell id="NRQzGSNmXJWds7D0hunD-22" value="id_Genre (PK) INT&lt;div&gt;Name_Genre VARCHAR(40)&lt;/div&gt;" style="whiteSpace=wrap;html=1;" vertex="1" parent="1">
          <mxGeometry x="40" y="160" width="120" height="60" as="geometry" />
        </mxCell>
        <mxCell id="NRQzGSNmXJWds7D0hunD-25" value="" style="edgeStyle=orthogonalEdgeStyle;rounded=0;orthogonalLoop=1;jettySize=auto;html=1;" edge="1" parent="1" source="NRQzGSNmXJWds7D0hunD-23" target="NRQzGSNmXJWds7D0hunD-24">
          <mxGeometry relative="1" as="geometry" />
        </mxCell>
        <mxCell id="NRQzGSNmXJWds7D0hunD-23" value="producteurs" style="whiteSpace=wrap;html=1;" vertex="1" parent="1">
          <mxGeometry x="20" y="590" width="120" height="60" as="geometry" />
        </mxCell>
        <mxCell id="NRQzGSNmXJWds7D0hunD-24" value="Id_producer PK INTEGER&lt;div&gt;Name_producer VARCHAR(45)&lt;/div&gt;" style="whiteSpace=wrap;html=1;" vertex="1" parent="1">
          <mxGeometry x="20" y="640" width="120" height="70" as="geometry" />
        </mxCell>
        <mxCell id="NRQzGSNmXJWds7D0hunD-26" value="studios" style="whiteSpace=wrap;html=1;" vertex="1" parent="1">
          <mxGeometry x="530" y="220" width="150" height="50" as="geometry" />
        </mxCell>
        <mxCell id="NRQzGSNmXJWds7D0hunD-27" value="Id_Studio PK INTEGER&lt;div&gt;NameStudio&lt;br&gt;&lt;div&gt;&lt;br&gt;&lt;/div&gt;&lt;/div&gt;" style="whiteSpace=wrap;html=1;" vertex="1" parent="1">
          <mxGeometry x="531" y="270" width="149" height="60" as="geometry" />
        </mxCell>
        <mxCell id="NRQzGSNmXJWds7D0hunD-30" value="" style="edgeStyle=orthogonalEdgeStyle;rounded=0;orthogonalLoop=1;jettySize=auto;html=1;" edge="1" parent="1" source="NRQzGSNmXJWds7D0hunD-28" target="NRQzGSNmXJWds7D0hunD-29">
          <mxGeometry relative="1" as="geometry" />
        </mxCell>
        <mxCell id="NRQzGSNmXJWds7D0hunD-28" value="Anime_Genre" style="whiteSpace=wrap;html=1;" vertex="1" parent="1">
          <mxGeometry x="280" y="120" width="120" height="40" as="geometry" />
        </mxCell>
        <mxCell id="NRQzGSNmXJWds7D0hunD-29" value="Id_Anime FK INT&lt;div&gt;Id_Genre FK INT&lt;/div&gt;" style="whiteSpace=wrap;html=1;" vertex="1" parent="1">
          <mxGeometry x="280" y="160" width="120" height="50" as="geometry" />
        </mxCell>
        <mxCell id="NRQzGSNmXJWds7D0hunD-33" value="" style="edgeStyle=orthogonalEdgeStyle;rounded=0;orthogonalLoop=1;jettySize=auto;html=1;" edge="1" parent="1" source="NRQzGSNmXJWds7D0hunD-31" target="NRQzGSNmXJWds7D0hunD-32">
          <mxGeometry relative="1" as="geometry" />
        </mxCell>
        <mxCell id="NRQzGSNmXJWds7D0hunD-31" value="production" style="whiteSpace=wrap;html=1;" vertex="1" parent="1">
          <mxGeometry x="300" y="520" width="120" height="30" as="geometry" />
        </mxCell>
        <mxCell id="NRQzGSNmXJWds7D0hunD-34" style="edgeStyle=orthogonalEdgeStyle;rounded=0;orthogonalLoop=1;jettySize=auto;html=1;" edge="1" parent="1" source="NRQzGSNmXJWds7D0hunD-32">
          <mxGeometry relative="1" as="geometry">
            <mxPoint x="360" y="590" as="targetPoint" />
          </mxGeometry>
        </mxCell>
        <mxCell id="NRQzGSNmXJWds7D0hunD-32" value="&lt;div&gt;Id_Anime&amp;nbsp;&lt;span style=&quot;background-color: initial;&quot;&gt;FK INT&lt;/span&gt;&lt;/div&gt;Id_Producer FK INT&lt;div&gt;&lt;br&gt;&lt;/div&gt;" style="whiteSpace=wrap;html=1;" vertex="1" parent="1">
          <mxGeometry x="300" y="549" width="120" height="50" as="geometry" />
        </mxCell>
        <mxCell id="NRQzGSNmXJWds7D0hunD-36" value="types" style="whiteSpace=wrap;html=1;" vertex="1" parent="1">
          <mxGeometry x="500" y="400" width="160" height="50" as="geometry" />
        </mxCell>
        <mxCell id="NRQzGSNmXJWds7D0hunD-37" value="Id_type PK INTEGER&lt;div&gt;name_type VARCHAR(45)&lt;/div&gt;" style="whiteSpace=wrap;html=1;" vertex="1" parent="1">
          <mxGeometry x="500" y="440" width="160" height="60" as="geometry" />
        </mxCell>
        <mxCell id="NRQzGSNmXJWds7D0hunD-42" style="edgeStyle=orthogonalEdgeStyle;rounded=0;orthogonalLoop=1;jettySize=auto;html=1;exitX=1;exitY=0.25;exitDx=0;exitDy=0;entryX=0.967;entryY=0.367;entryDx=0;entryDy=0;entryPerimeter=0;" edge="1" parent="1" source="NRQzGSNmXJWds7D0hunD-17" target="NRQzGSNmXJWds7D0hunD-17">
          <mxGeometry relative="1" as="geometry" />
        </mxCell>
      </root>
    </mxGraphModel>
  </diagram>
</mxfile>
